<svg id="Layer_1" data-name="Layer 1" xmlns="http://www.w3.org/2000/svg" viewBox="0 0 500 500"><path d="M229.51,228.62l-126.82,86a4.82,4.82,0,0,1-7.29-5.5c12.12-36.29,54.13-134.69,120.69-114Z"/><path d="M230.63,179.54,233.21,19.3a4.82,4.82,0,0,1,8.7-2.78c22.63,30.85,79.16,118.75,23.84,161.14Z"/><path d="M284.35,203.11,420.72,274.5a4.82,4.82,0,0,1-1.41,9c-37.72,6.41-141.64,17.56-154.74-50.9Z"/><path d="M143.84,29.6C121.75,46,102.76,64.89,87.71,87.49l-3.85,6.18c-2.69,4-4.81,8.43-7.24,12.63-1,1.69-2.36,4.68-3.29,6.49a206.63,206.63,0,0,0-9,20l-2.65,6.86c-.76,2.33-1.46,4.68-2.2,7a138.93,138.93,0,0,0-6.31,43.81c.28,24.65,7.57,48.94,18.68,70.73,20.33,41.38,56.22,74.35,98.29,92.78,20.33,9,42,14,64.15,16.41a.6.6,0,0,1,0,1.2c-45.25,4.57-93.26-12.09-127.39-43.39a179.42,179.42,0,0,1-43.82-63,173.48,173.48,0,0,1-9.58-33.1A235.07,235.07,0,0,1,49.67,183c.09-2.52.11-5,.15-7.57l.56-7.56c.18-2.53.24-5.07.62-7.57a194.93,194.93,0,0,1,5.28-30.1,134.24,134.24,0,0,1,7.55-21.81l1.56-3.54.8-1.76a157.79,157.79,0,0,1,8.63-15c1.42-2.15,2.78-4.34,4.25-6.44l4.67-6.14a166.12,166.12,0,0,1,27-27.23c1.81-1.59,4.25-3.17,6.14-4.57a145.83,145.83,0,0,1,26.37-15.06.6.6,0,0,1,.8.3.6.6,0,0,1-.2.74Z"/><path d="M236.84,224.43s.11,234.31-34.68,236a6.36,6.36,0,0,0-1.62.25c-6.55,2.13-52.23,17.23-69.55,28.64a2.16,2.16,0,0,0-1,2c.29,2.83,1.75,8.89,8.92,6.69,9.22-2.84,61.69-17.65,105.51-17.17l4.89-.07c42.05,1.16,98.15,14.4,107.38,17.24,7.09,2.18,8.59-3.75,8.91-6.61a2.3,2.3,0,0,0-1-2.17c-17.38-11.41-62.95-26.47-69.49-28.6a6.22,6.22,0,0,0-1.61-.25c-34.78-1.66-33.63-236-33.63-236Z"/><path d="M448.08,154.25a220.7,220.7,0,0,0-63.56-101c-14.79-13.73-31.37-25.85-50.18-33.54C306.12,7.86,274.51,6.53,244.69,12a190.16,190.16,0,0,0-81.56,35.15,200,200,0,0,0-58.38,67.61,228.85,228.85,0,0,0-12.45,28,.6.6,0,0,1-.78.36.61.61,0,0,1-.39-.66,156.41,156.41,0,0,1,14.28-44.65c28.34-58.34,89-95.94,153.78-96.07,42.61,0,94.37,16.08,128.69,41.5C422.35,69.3,445.69,111,449.26,154a.6.6,0,0,1-.55.65.62.62,0,0,1-.63-.43Z"/><path d="M412.17,270.84c24.31-46.26,26.63-103.45,6.16-152a184.2,184.2,0,0,1,20.23,77.42,188.31,188.31,0,0,1-14.62,80.11,6.5,6.5,0,1,1-11.77-5.51Z"/><path d="M250.76,168.67a34.95,34.95,0,1,0,34.95,34.94A34.94,34.94,0,0,0,250.76,168.67Zm0,46.28a11.34,11.34,0,1,1,11.34-11.34A11.34,11.34,0,0,1,250.76,215Z"/></svg>